<svg xmlns="http://www.w3.org/2000/svg" xmlns:svg="http://www.w3.org/2000/svg" id="svg10" width="48" height="48" version="1.1"><metadata id="metadata16"/><path id="path2" fill="#d38c2d" d="M 0,6 V 48 H 9 V 15 h 3 c 3,0 6,3 6,6 v 27 h 9 v -6 h 6 v 6 h 9 v -6 h 6 v -6 h -6 v -9 h -9 v 9 H 27 V 21 C 27,18 24,6 12,6 Z"/><path id="path4" fill="#f9aa40" d="M 0,3 V 45 H 9 V 12 h 3 c 3,0 6,3 6,6 v 27 h 9 v -6 h 6 v 6 h 9 v -6 h 6 v -6 h -6 v -9 h -9 v 9 H 27 V 18 C 27,15 24,3 12,3 Z"/><circle id="circle6" cx="39" cy="11" r="9" fill="#007a2c"/><circle id="circle8" cx="39" cy="9" r="9" fill="#1bc563"/></svg>