<svg xmlns="http://www.w3.org/2000/svg" xmlns:svg="http://www.w3.org/2000/svg" id="svg893" width="128" height="128" version="1.1"><metadata id="metadata899"/><path id="path889" fill="#d38c2d" d="M 8,12 V 116 H 28 V 36 h 8 c 8,0 12,4 12,12 v 68 h 20 v -16 h 16 v 16 h 20 v -16 h 16 V 80 H 104 V 60 H 84 V 80 H 68 V 48 C 68,32 56,12 40,12 Z" style="stroke-width:1"/><path id="path891" fill="#f9aa40" d="M 8,12 V 112 H 28 V 32 h 8 c 8,0 12,4 12,12 v 68 H 68 V 96 h 16 v 16 h 20 V 96 h 16 V 80 H 104 V 60 H 84 V 80 H 68 V 44 C 68,28 56,12 40,12 Z" style="stroke-width:1"/></svg>